<?xml version="1.0" encoding="utf-8"?>
<!-- Generator: Adobe Illustrator 15.0.0, SVG Export Plug-In . SVG Version: 6.00 Build 0)  -->
<!DOCTYPE svg PUBLIC "-//W3C//DTD SVG 1.1//EN" "http://www.w3.org/Graphics/SVG/1.1/DTD/svg11.dtd">
<svg version="1.1" id="Logo" xmlns="http://www.w3.org/2000/svg" xmlns:xlink="http://www.w3.org/1999/xlink" x="0px" y="0px" preserveAspectRatio="xMaxYMid meet"
	 width="100%" height="100%" viewBox="0 0 16 7.3" enable-background="new 0 0 16 7.3" xml:space="preserve">

	<g>
		<g>
			<path fill="#FFFFFF" d="M10.701,2.381c0-0.157,0.285-0.164,0.285,0v2.154c0,0.188-0.26,0.207-0.338,0.075L9.273,2.768l0.002,0.48
				v1.324c0,0.186-0.285,0.188-0.285,0v-2.15c0-0.188,0.21-0.217,0.305-0.078l1.408,1.884l-0.002-0.519V2.381z"/>
			<path fill="#FFFFFF" d="M13.312,2.389c0-0.184,0.28-0.184,0.28-0.003V3.62c0,0.721-0.56,1.084-1.106,1.084
				c-0.549,0-1.106-0.363-1.106-1.084V2.386c0-0.165,0.281-0.165,0.281,0.003v1.23c0,1.084,1.651,1.084,1.651,0V2.389L13.312,2.389z
				"/>
			<path fill="#FFFFFF" d="M15.854,2.288c0.186,0,0.186,0.26,0,0.26h-0.836c0,0.675,0.004,1.361,0.004,2.037
				c0,0.095-0.078,0.14-0.144,0.14s-0.135-0.045-0.135-0.14V2.547H13.91c-0.176,0-0.176-0.26,0-0.26H15.854z"/>
		</g>
		<g>
			<path fill="#BED136" d="M1.971,2.625h0.005c-0.153-0.043-0.343-0.043-0.5,0.004C1.105,2.727,0.887,3.038,0.859,3.413h1.747
				C2.574,3.019,2.333,2.718,1.971,2.625z"/>
			<path fill="#BED136" d="M6.777,2.625h0.004c-0.152-0.043-0.342-0.043-0.5,0.004c-0.37,0.098-0.588,0.408-0.616,0.783h1.747
				C7.38,3.019,7.139,2.718,6.777,2.625z"/>
			<path fill="#BED136" d="M7.455,1.754l0.441-0.455c0,0,0.128-0.131,0.034-0.252C7.856,0.952,7.734,0.976,7.66,1.008
				C7.585,1.043,7.166,1.209,7.166,1.209C7.829,0.689,8.029,0.352,8.09,0.143c0.039-0.135-0.091-0.155-0.154-0.092
				c-0.114,0.115-1.032,1.294-3.8,1.294c-2.768,0-3.686-1.179-3.8-1.294C0.273-0.012,0.143,0.008,0.182,0.143
				c0.06,0.209,0.26,0.546,0.923,1.066c0,0-0.419-0.166-0.494-0.201c-0.074-0.032-0.196-0.057-0.27,0.039
				C0.246,1.168,0.375,1.299,0.375,1.299l0.442,0.455C0.579,1.898,0.008,2.713,0.008,3.795c0,1.326,0.979,1.455,1.571,1.373
				c0.558-0.075,1.43-0.256,2.383,0.367l0.01-0.923l-1.02-2.002C2.848,2.403,3.18,2.29,3.27,2.495l0.868,1.791l0.914-1.797
				c0.086-0.193,0.393-0.092,0.301,0.12L4.314,4.613l0.009,0.914c0.948-0.612,1.814-0.435,2.37-0.358
				C7.284,5.25,8.264,5.122,8.264,3.795C8.264,2.713,7.692,1.897,7.455,1.754z M2.704,3.696H0.873
				c0.06,0.381,0.385,0.695,0.848,0.695c0.213,0,0.436-0.057,0.616-0.195C2.5,4.047,2.741,4.238,2.56,4.422
				C2.347,4.624,2.036,4.706,1.735,4.702c-0.361,0-0.723-0.14-0.94-0.412c-0.5-0.658-0.283-1.725,0.579-1.965
				c0.218-0.066,0.468-0.061,0.695,0h0.004C2.597,2.468,2.921,2.894,2.93,3.487V3.482C2.94,3.584,2.894,3.696,2.704,3.696z
				 M7.509,3.696h-1.83C5.74,4.077,6.064,4.391,6.527,4.391c0.213,0,0.436-0.057,0.617-0.195c0.162-0.148,0.403,0.042,0.222,0.227
				C7.152,4.624,6.842,4.706,6.541,4.702c-0.362,0-0.723-0.14-0.941-0.412C5.1,3.631,5.317,2.565,6.179,2.325
				c0.218-0.066,0.468-0.061,0.695,0h0.004c0.524,0.144,0.848,0.569,0.857,1.162V3.482C7.746,3.584,7.699,3.696,7.509,3.696z"/>
		</g>
	</g>
	<text transform="matrix(1 0 0 1 0.1509 7.0942)" fill="#FFFFFF" font-family="'VarelaRound-Regular'" font-size="1.4" letter-spacing="0.4">DATABASE APP</text>
</svg>
