<?xml version="1.0" encoding="utf-8"?>
<!-- Generator: Adobe Illustrator 15.0.2, SVG Export Plug-In . SVG Version: 6.00 Build 0)  -->
<!DOCTYPE svg PUBLIC "-//W3C//DTD SVG 1.1//EN" "http://www.w3.org/Graphics/SVG/1.1/DTD/svg11.dtd">
<svg version="1.1" id="Logo" xmlns="http://www.w3.org/2000/svg" xmlns:xlink="http://www.w3.org/1999/xlink" x="0px" y="0px" preserveAspectRatio="xMaxYMid meet"
	 width="100%" height="100%" viewBox="0 0 431 200" xml:space="preserve">
<g>
	<g>
		<g>
			<path fill="#FFFFFF" d="M288.271,63.711c0-4.246,7.683-4.448,7.683,0v58.023c0,5.054-6.975,5.559-9.099,2.021l-37.053-49.657
				l0.057,12.963v35.683c0,4.953-7.683,5.055-7.683,0V64.823c0-5.054,5.661-5.863,8.188-2.123l37.936,50.745l-0.029-13.95V63.711z"
				/>
			<path fill="#FFFFFF" d="M358.573,63.914c0-4.953,7.582-4.953,7.582-0.102v33.256c0,19.408-15.062,29.214-29.819,29.214
				c-14.759,0-29.82-9.806-29.82-29.214V63.812c0-4.447,7.581-4.447,7.581,0.102v33.155c0,29.214,44.477,29.214,44.477,0V63.914z"/>
			<path fill="#FFFFFF" d="M427.082,61.184c4.952,0,4.952,6.975,0,6.975H404.54c0,18.195,0.101,36.694,0.101,54.889
				c0,2.527-2.123,3.74-3.841,3.74c-1.719,0-3.64-1.213-3.64-3.74V68.159h-22.44c-4.751,0-4.751-6.975,0-6.975H427.082z"/>
		</g>
		<g>
			<path fill="#C3D633" d="M53.105,70.261h0.124c-4.119-1.123-9.238-1.123-13.482,0.125c-9.987,2.623-15.855,10.987-16.604,21.098
				h47.065C69.334,80.874,62.843,72.758,53.105,70.261z"/>
			<path fill="#C3D633" d="M182.561,70.261h0.125c-4.12-1.123-9.239-1.123-13.483,0.125c-9.987,2.623-15.854,10.987-16.604,21.098
				h47.066C198.789,80.874,192.298,72.758,182.561,70.261z"/>
			<path fill="#C3D633" d="M200.803,46.817l11.908-12.274c0,0,3.461-3.503,0.916-6.778c-2.002-2.576-5.285-1.938-7.3-1.022
				c-2.016,0.916-13.295,5.388-13.295,5.388C210.89,18.116,216.29,9.027,217.919,3.403c1.048-3.619-2.463-4.185-4.152-2.482
				c-3.081,3.105-27.814,34.857-102.363,34.857C36.855,35.778,12.122,4.026,9.041,0.92c-1.689-1.703-5.2-1.136-4.152,2.482
				c1.629,5.624,7.029,14.713,24.887,28.729c0,0-11.279-4.472-13.295-5.388c-2.015-0.916-5.298-1.554-7.3,1.022
				c-2.545,3.274,0.916,6.778,0.916,6.778l11.908,12.274c-6.412,3.846-21.801,25.83-21.801,54.958
				c0,35.728,26.38,39.204,42.318,37.005c15.027-2.072,38.526-6.903,64.195,9.903l0.253-24.873L79.508,69.868
				c-2.78-5.587,6.158-8.642,8.571-3.121l23.387,48.262l24.615-48.418c2.327-5.18,10.604-2.466,8.109,3.247l-27.98,53.973
				l0.25,24.624c25.526-16.52,48.87-11.716,63.825-9.654c15.938,2.199,42.318-1.277,42.318-37.005
				C222.604,72.647,207.215,50.664,200.803,46.817z M72.83,99.1H23.518c1.623,10.237,10.361,18.727,22.846,18.727
				c5.743,0,11.735-1.498,16.604-5.244c4.369-3.994,10.86,1.124,5.992,6.118c-5.743,5.368-14.107,7.615-22.222,7.49
				c-9.737,0-19.476-3.745-25.344-11.11C7.912,97.352,13.78,68.639,37.001,62.148c5.867-1.75,12.608-1.624,18.726,0h0.125
				c14.107,3.868,22.847,15.354,23.097,31.334v-0.125C79.196,96.104,77.949,99.1,72.83,99.1z M202.285,99.1h-49.312
				c1.623,10.237,10.361,18.727,22.846,18.727c5.743,0,11.735-1.498,16.604-5.244c4.369-3.994,10.861,1.124,5.992,6.118
				c-5.743,5.368-14.107,7.615-22.222,7.49c-9.738,0-19.475-3.745-25.343-11.11c-13.483-17.728-7.615-46.441,15.604-52.932
				c5.868-1.75,12.609-1.624,18.727,0h0.125c14.107,3.868,22.847,15.354,23.096,31.334v-0.125
				C208.651,96.104,207.404,99.1,202.285,99.1z"/>
		</g>
	</g>
	<g>
		<path fill="#FFFFFF" d="M6.288,179.077c0-1.64,2.46-1.607,2.46,0v19.61c0,1.509-2.46,1.575-2.46,0V179.077z"/>
		<path fill="#FFFFFF" d="M33.952,179.438c0-1.378,2.492-1.443,2.492,0v18.823c0,1.64-2.263,1.804-2.951,0.656l-12.265-16.431
			l0.262,4.526v11.576c0,1.606-2.492,1.64-2.492,0v-18.791c0-1.64,1.836-1.902,2.656-0.689l12.626,16.89l-0.328-4.951V179.438z"/>
		<path fill="#FFFFFF" d="M64.336,195.868c-1.935,2.558-5.182,3.968-8.362,3.935c-5.641-0.032-10.494-4.723-10.363-10.92
			c0-4.984,3.738-9.544,8.756-10.494c0.492-0.066,1.115-0.099,1.705-0.099c2.854,0,5.903,0.984,7.707,3.083
			c0.984,1.147-0.688,2.722-1.705,1.541c-1.837-2.132-4.887-2.886-7.346-2.263c-3.607,0.853-6.756,4.034-6.756,8.329
			c0.065,4.624,3.804,8.494,8.034,8.592c2.427,0.033,4.952-1.016,6.396-2.95v-4.362h-5.903c-1.541,0-1.378-2.164,0-2.164h6.952
			c0.951,0,1.246,0.491,1.246,1.213v5.478C64.696,195.146,64.631,195.572,64.336,195.868z"/>
		<path fill="#FFFFFF" d="M77.225,197.344h12.953c1.377,0,1.574,2.164,0,2.164H76.371c-0.918,0-1.509-0.656-1.509-1.443v-18.003
			c0-0.755,0.591-1.41,1.509-1.41h13.84c1.41,0,1.344,2.099-0.033,2.099H77.225v7.378h12.33c1.312,0,1.377,2.099,0,2.099h-12.33
			V197.344z"/>
		<path fill="#FFFFFF" d="M115.229,179.438c0-1.378,2.493-1.443,2.493,0v18.823c0,1.64-2.264,1.804-2.952,0.656l-12.265-16.431
			l0.262,4.526v11.576c0,1.606-2.492,1.64-2.492,0v-18.791c0-1.64,1.836-1.902,2.656-0.689l12.626,16.89l-0.328-4.951V179.438z"/>
		<path fill="#FFFFFF" d="M128.18,179.077c0-1.64,2.46-1.607,2.46,0v19.61c0,1.509-2.46,1.575-2.46,0V179.077z"/>
		<path fill="#FFFFFF" d="M139.738,188.719c0-5.149,3.476-9.543,8.69-10.363c1.213-0.164,2.328-0.131,3.476,0
			c5.051,0.787,8.953,4.984,8.953,10.363c0,6.821-4.919,11.15-10.494,11.15C144.46,199.869,139.738,195.672,139.738,188.719z
			 M142.197,188.816c0,5.379,3.542,8.789,8.166,8.789c4.428,0,8.067-3.279,8.067-8.789c0-4.23-2.787-7.608-6.821-8.263
			c-0.983-0.132-1.935-0.132-2.854,0C144.788,181.177,142.197,184.356,142.197,188.816z"/>
		<path fill="#FFFFFF" d="M187.001,179.504c0-1.607,2.46-1.607,2.46-0.033v10.789c0,6.297-4.887,9.478-9.674,9.478
			c-4.789,0-9.675-3.181-9.675-9.478v-10.789c0-1.442,2.459-1.442,2.459,0.033v10.756c0,9.478,14.43,9.478,14.43,0V179.504z"/>
		<path fill="#FFFFFF" d="M200.768,194.326c0.853,2.723,4.493,3.312,7.116,3.312c2.788,0,7.116-0.853,7.116-4.165
			c0-2.853-3.442-3.082-7.05-3.378c-4.526-0.36-9.38-0.787-9.38-5.673c0-4.329,4.985-6.264,8.986-6.264
			c3.442,0,7.739,0.819,9.116,4.558c0.492,1.312-1.737,1.902-2.229,0.787c-0.983-2.492-4.493-2.919-6.854-2.919
			c-2.197,0-6.461,0.886-6.461,3.87c0,2.854,3.28,3.148,7.085,3.444c4.492,0.394,9.312,0.623,9.312,5.541
			c0,5.018-5.607,6.56-9.642,6.56c-3.345,0-8.461-1.148-9.542-5.083C197.947,193.474,200.505,192.981,200.768,194.326z"/>
		<path fill="#FFFFFF" d="M254.973,198.688c-1.575,0.723-3.345,1.182-4.92,1.182c-5.607,0-10.658-4.592-10.658-11.085
			c0-5.378,3.838-9.642,8.888-10.429c3.837-0.524,7.182,0.427,9.772,3.148c0.983,1.115-0.787,2.459-1.705,1.476
			c-2.229-2.361-4.821-2.722-7.707-2.395c-4.033,0.623-6.886,3.478-6.886,8.231c0,4.985,3.836,8.789,8.362,8.789
			c1.213,0,2.558-0.327,3.804-0.95c1.017-0.525,2-1.312,2.689-2.198c0.754-1.114,2.755,0.1,1.901,1.312
			C257.629,197.016,256.383,197.999,254.973,198.688z"/>
		<path fill="#FFFFFF" d="M265.909,188.719c0-5.149,3.477-9.543,8.691-10.363c1.213-0.164,2.328-0.131,3.476,0
			c5.05,0.787,8.953,4.984,8.953,10.363c0,6.821-4.919,11.15-10.494,11.15C270.632,199.869,265.909,195.672,265.909,188.719z
			 M268.369,188.816c0,5.379,3.542,8.789,8.166,8.789c4.427,0,8.067-3.279,8.067-8.789c0-4.23-2.788-7.608-6.821-8.263
			c-0.984-0.132-1.935-0.132-2.854,0C270.96,181.177,268.369,184.356,268.369,188.816z"/>
		<path fill="#FFFFFF" d="M311.412,179.438c0-1.378,2.492-1.443,2.492,0v18.823c0,1.64-2.263,1.804-2.951,0.656l-12.266-16.431
			l0.263,4.526v11.576c0,1.606-2.492,1.64-2.492,0v-18.791c0-1.64,1.836-1.902,2.655-0.689l12.626,16.89l-0.327-4.951V179.438z"/>
		<path fill="#FFFFFF" d="M339.916,178.618c1.607,0,1.607,2.263,0,2.263h-7.313c0,5.903,0.033,11.904,0.033,17.807
			c0,0.82-0.689,1.214-1.246,1.214c-0.558,0-1.181-0.394-1.181-1.214v-17.807h-7.281c-1.54,0-1.54-2.263,0-2.263H339.916z"/>
		<path fill="#FFFFFF" d="M351.51,192.194v6.362c0,1.509-2.395,1.509-2.395,0.033v-18.824c0-0.688,0.492-1.147,1.213-1.147h7.772
			c5.673,0,8.56,3.213,8.56,7.051c0,3.312-1.804,5.706-5.838,6.395l5.313,5.739c1.246,1.246-0.558,2.689-1.64,1.574l-6.625-7.183
			H351.51z M351.51,190.129h6.624c4.296,0,6.165-2.001,6.1-4.46c-0.033-2.689-2.296-4.854-6.1-4.854h-6.624V190.129z"/>
		<path fill="#FFFFFF" d="M374.547,188.719c0-5.149,3.477-9.543,8.691-10.363c1.213-0.164,2.328-0.131,3.476,0
			c5.05,0.787,8.953,4.984,8.953,10.363c0,6.821-4.919,11.15-10.494,11.15C379.27,199.869,374.547,195.672,374.547,188.719z
			 M377.007,188.816c0,5.379,3.542,8.789,8.166,8.789c4.427,0,8.067-3.279,8.067-8.789c0-4.23-2.788-7.608-6.821-8.263
			c-0.984-0.132-1.935-0.132-2.854,0C379.598,181.177,377.007,184.356,377.007,188.816z"/>
		<path fill="#FFFFFF" d="M406.42,199.508c-0.886,0-1.246-0.427-1.246-1.213v-18.824c0-1.541,2.428-1.541,2.428,0v17.873h12.265
			c1.672,0,1.672,2.164,0,2.164H406.42z"/>
	</g>
</g>
</svg>
