<?xml version="1.0" encoding="utf-8"?>
<!-- Generator: Adobe Illustrator 15.0.0, SVG Export Plug-In . SVG Version: 6.00 Build 0)  -->
<!DOCTYPE svg PUBLIC "-//W3C//DTD SVG 1.1//EN" "http://www.w3.org/Graphics/SVG/1.1/DTD/svg11.dtd">
<svg version="1.1" id="Logo" xmlns="http://www.w3.org/2000/svg" xmlns:xlink="http://www.w3.org/1999/xlink" x="0px" y="0px" preserveAspectRatio="xMaxYMid meet"
	 width="100%" height="100%" viewBox="0 4.35 16 7.3" enable-background="new 0 4.35 16 7.3" xml:space="preserve">
<g>
	<g>
		<path fill="#FFFFFF" d="M10.701,6.731c0-0.157,0.285-0.164,0.285,0v2.154c0,0.188-0.26,0.207-0.338,0.075L9.273,7.118l0.002,0.48
			v1.324c0,0.186-0.285,0.188-0.285,0v-2.15c0-0.188,0.21-0.217,0.305-0.078l1.408,1.884l-0.002-0.519V6.731z"/>
		<path fill="#FFFFFF" d="M13.312,6.739c0-0.184,0.279-0.184,0.279-0.003V7.97c0,0.721-0.56,1.084-1.105,1.084
			c-0.549,0-1.106-0.363-1.106-1.084V6.736c0-0.165,0.281-0.165,0.281,0.003v1.229c0,1.084,1.651,1.084,1.651,0V6.739L13.312,6.739z
			"/>
		<path fill="#FFFFFF" d="M15.854,6.638c0.187,0,0.187,0.26,0,0.26h-0.836c0,0.675,0.004,1.361,0.004,2.038
			c0,0.094-0.078,0.14-0.144,0.14s-0.135-0.046-0.135-0.14V6.897H13.91c-0.176,0-0.176-0.26,0-0.26L15.854,6.638L15.854,6.638z"/>
	</g>
	<g>
		<path fill="#BED136" d="M1.971,6.975h0.005c-0.153-0.043-0.343-0.043-0.5,0.004C1.105,7.077,0.887,7.388,0.859,7.763h1.747
			C2.574,7.369,2.333,7.068,1.971,6.975z"/>
		<path fill="#BED136" d="M6.777,6.975h0.004c-0.152-0.043-0.342-0.043-0.5,0.004c-0.37,0.098-0.588,0.408-0.616,0.783h1.747
			C7.38,7.369,7.139,7.068,6.777,6.975z"/>
		<path fill="#BED136" d="M7.455,6.104l0.441-0.455c0,0,0.128-0.131,0.034-0.252C7.856,5.302,7.734,5.326,7.66,5.358
			C7.585,5.393,7.166,5.559,7.166,5.559c0.663-0.52,0.863-0.857,0.924-1.066c0.039-0.135-0.091-0.155-0.154-0.092
			c-0.114,0.115-1.032,1.294-3.8,1.294c-2.768,0-3.686-1.179-3.8-1.294C0.273,4.338,0.143,4.358,0.182,4.493
			c0.06,0.209,0.26,0.546,0.923,1.066c0,0-0.419-0.166-0.494-0.201c-0.074-0.032-0.196-0.057-0.27,0.039
			C0.246,5.518,0.375,5.649,0.375,5.649l0.442,0.455C0.579,6.248,0.008,7.063,0.008,8.145c0,1.326,0.979,1.455,1.571,1.373
			c0.558-0.074,1.43-0.256,2.383,0.367l0.01-0.923L2.952,6.96C2.848,6.753,3.18,6.64,3.27,6.845l0.868,1.792l0.914-1.798
			c0.086-0.193,0.393-0.092,0.301,0.12L4.314,8.963l0.009,0.914c0.948-0.611,1.814-0.436,2.37-0.357
			C7.284,9.6,8.264,9.473,8.264,8.145C8.264,7.063,7.692,6.247,7.455,6.104z M2.704,8.046H0.873c0.06,0.381,0.385,0.695,0.848,0.695
			c0.213,0,0.436-0.058,0.616-0.195C2.5,8.397,2.741,8.588,2.56,8.771c-0.213,0.203-0.524,0.285-0.825,0.28
			c-0.361,0-0.723-0.14-0.94-0.411c-0.5-0.659-0.283-1.726,0.579-1.966c0.218-0.066,0.468-0.061,0.695,0h0.004
			C2.597,6.818,2.921,7.244,2.93,7.837V7.832C2.94,7.934,2.894,8.046,2.704,8.046z M7.509,8.046h-1.83
			C5.74,8.427,6.064,8.741,6.527,8.741c0.213,0,0.436-0.058,0.617-0.195c0.162-0.148,0.403,0.042,0.222,0.228
			C7.152,8.975,6.842,9.057,6.541,9.052c-0.362,0-0.723-0.14-0.941-0.411c-0.5-0.66-0.283-1.726,0.579-1.966
			c0.218-0.066,0.468-0.061,0.695,0h0.004c0.524,0.144,0.848,0.569,0.857,1.162V7.832C7.746,7.934,7.699,8.046,7.509,8.046z"/>
	</g>
</g>
<g enable-background="new    ">
	<path fill="#FFFFFF" d="M0.305,11.426c-0.012-0.012-0.018-0.026-0.018-0.045v-0.85c0-0.018,0.006-0.032,0.018-0.045
		c0.012-0.013,0.027-0.02,0.045-0.02h0.281c0.106,0,0.197,0.023,0.271,0.071c0.074,0.047,0.13,0.107,0.167,0.183
		c0.037,0.074,0.056,0.153,0.056,0.235s-0.019,0.16-0.056,0.235c-0.038,0.074-0.093,0.135-0.167,0.183
		c-0.074,0.047-0.165,0.07-0.271,0.07H0.35C0.333,11.444,0.317,11.438,0.305,11.426z M0.616,11.325c0.077,0,0.144-0.016,0.202-0.047
		c0.058-0.031,0.103-0.074,0.134-0.13S1,11.028,1,10.956c0-0.073-0.016-0.138-0.048-0.192c-0.032-0.056-0.077-0.1-0.134-0.131
		c-0.058-0.031-0.125-0.047-0.202-0.047H0.415v0.739H0.616z"/>
	<path fill="#FFFFFF" d="M1.668,11.434c-0.012-0.013-0.018-0.027-0.018-0.045c0-0.008,0.002-0.018,0.007-0.028l0.357-0.843
		c0.007-0.017,0.018-0.03,0.031-0.041c0.014-0.011,0.03-0.017,0.05-0.017H2.11c0.02,0,0.036,0.006,0.05,0.017
		c0.013,0.011,0.024,0.024,0.031,0.041l0.357,0.843c0.005,0.011,0.007,0.021,0.007,0.028c0,0.018-0.006,0.032-0.018,0.045
		c-0.012,0.012-0.027,0.018-0.045,0.018c-0.013,0-0.025-0.003-0.036-0.011c-0.011-0.007-0.019-0.017-0.024-0.028l-0.091-0.219H1.865
		l-0.091,0.219c-0.006,0.012-0.014,0.021-0.025,0.028c-0.01,0.008-0.022,0.011-0.036,0.011C1.695,11.451,1.68,11.445,1.668,11.434z
		 M1.914,11.077h0.378l-0.189-0.455L1.914,11.077z"/>
	<path fill="#FFFFFF" d="M3.318,11.434C3.306,11.421,3.3,11.406,3.3,11.389v-0.803H3.015c-0.017,0-0.031-0.006-0.042-0.017
		s-0.017-0.025-0.017-0.042s0.006-0.031,0.017-0.043s0.025-0.018,0.042-0.018h0.697c0.017,0,0.031,0.006,0.042,0.018
		s0.018,0.026,0.018,0.043s-0.006,0.031-0.018,0.042s-0.026,0.017-0.042,0.017H3.428v0.803c0,0.018-0.006,0.032-0.019,0.045
		c-0.013,0.012-0.028,0.018-0.045,0.018C3.345,11.451,3.331,11.445,3.318,11.434z"/>
	<path fill="#FFFFFF" d="M4.189,11.434c-0.012-0.013-0.018-0.027-0.018-0.045c0-0.008,0.002-0.018,0.007-0.028l0.357-0.843
		c0.007-0.017,0.018-0.03,0.031-0.041c0.014-0.011,0.03-0.017,0.05-0.017h0.014c0.02,0,0.036,0.006,0.05,0.017
		c0.013,0.011,0.024,0.024,0.031,0.041l0.357,0.843c0.005,0.011,0.007,0.021,0.007,0.028c0,0.018-0.006,0.032-0.018,0.045
		c-0.012,0.012-0.027,0.018-0.045,0.018c-0.013,0-0.025-0.003-0.036-0.011c-0.011-0.007-0.019-0.017-0.024-0.028l-0.091-0.219H4.386
		l-0.091,0.219c-0.006,0.012-0.014,0.021-0.025,0.028c-0.01,0.008-0.022,0.011-0.036,0.011C4.216,11.451,4.201,11.445,4.189,11.434z
		 M4.435,11.077h0.378l-0.189-0.455L4.435,11.077z"/>
	<path fill="#FFFFFF" d="M5.699,11.426c-0.012-0.012-0.018-0.026-0.018-0.045v-0.85c0-0.018,0.006-0.032,0.018-0.045
		c0.012-0.013,0.027-0.02,0.045-0.02h0.331c0.1,0,0.177,0.023,0.231,0.069c0.055,0.045,0.082,0.107,0.082,0.185
		c0,0.054-0.013,0.099-0.039,0.135c-0.025,0.036-0.059,0.062-0.099,0.081c0.056,0.018,0.102,0.046,0.138,0.085
		c0.036,0.039,0.054,0.089,0.054,0.148c0,0.086-0.029,0.153-0.087,0.201c-0.058,0.049-0.149,0.073-0.273,0.073H5.744
		C5.727,11.444,5.711,11.438,5.699,11.426z M6.041,10.89c0.083,0,0.142-0.014,0.175-0.042C6.25,10.82,6.267,10.78,6.267,10.73
		c0-0.044-0.018-0.079-0.054-0.105c-0.036-0.025-0.085-0.039-0.147-0.039H5.809v0.304H6.041z M6.07,11.325
		c0.091,0,0.155-0.014,0.192-0.042c0.038-0.028,0.057-0.067,0.057-0.119c0-0.106-0.083-0.159-0.248-0.159H5.809v0.32H6.07z"/>
	<path fill="#FFFFFF" d="M7.002,11.434c-0.012-0.013-0.018-0.027-0.018-0.045c0-0.008,0.002-0.018,0.007-0.028l0.357-0.843
		c0.007-0.017,0.018-0.03,0.031-0.041c0.014-0.011,0.03-0.017,0.05-0.017h0.014c0.02,0,0.036,0.006,0.05,0.017
		c0.013,0.011,0.024,0.024,0.031,0.041l0.357,0.843c0.005,0.011,0.007,0.021,0.007,0.028c0,0.018-0.006,0.032-0.018,0.045
		c-0.012,0.012-0.027,0.018-0.045,0.018c-0.013,0-0.025-0.003-0.036-0.011c-0.011-0.007-0.019-0.017-0.024-0.028l-0.091-0.219H7.199
		l-0.091,0.219c-0.006,0.012-0.014,0.021-0.025,0.028c-0.01,0.008-0.022,0.011-0.036,0.011C7.029,11.451,7.014,11.445,7.002,11.434z
		 M7.248,11.077h0.378l-0.189-0.455L7.248,11.077z"/>
	<path fill="#FFFFFF" d="M8.469,11.392c-0.011-0.005-0.021-0.013-0.027-0.023c-0.008-0.011-0.012-0.022-0.012-0.034
		c0-0.016,0.006-0.03,0.017-0.042c0.011-0.011,0.024-0.017,0.041-0.017c0.009,0,0.019,0.001,0.026,0.005
		c0.086,0.038,0.178,0.058,0.276,0.058c0.163,0,0.244-0.054,0.244-0.161c0-0.027-0.01-0.051-0.031-0.069
		c-0.021-0.02-0.047-0.034-0.077-0.045c-0.031-0.011-0.075-0.023-0.132-0.038c-0.076-0.02-0.137-0.039-0.184-0.057
		c-0.047-0.019-0.087-0.046-0.12-0.082c-0.034-0.036-0.051-0.085-0.051-0.146c0-0.054,0.014-0.102,0.042-0.145
		c0.028-0.044,0.069-0.078,0.124-0.104c0.055-0.025,0.12-0.038,0.196-0.038c0.104,0,0.196,0.016,0.279,0.046
		c0.025,0.01,0.039,0.028,0.039,0.057c0,0.015-0.005,0.028-0.016,0.04c-0.01,0.013-0.023,0.019-0.04,0.019
		c-0.006,0-0.014-0.002-0.022-0.006c-0.073-0.025-0.148-0.038-0.226-0.038c-0.074,0-0.134,0.015-0.18,0.042
		C8.59,10.641,8.567,10.68,8.567,10.73c0,0.033,0.011,0.061,0.032,0.082c0.022,0.021,0.05,0.037,0.083,0.049
		s0.078,0.024,0.135,0.037c0.074,0.018,0.134,0.035,0.179,0.053c0.045,0.019,0.084,0.046,0.116,0.083s0.048,0.088,0.048,0.151
		c0,0.052-0.015,0.099-0.044,0.141c-0.03,0.041-0.072,0.074-0.126,0.097c-0.055,0.023-0.117,0.035-0.188,0.035
		C8.684,11.458,8.572,11.436,8.469,11.392z"/>
	<path fill="#FFFFFF" d="M9.773,11.426c-0.013-0.012-0.019-0.026-0.019-0.045v-0.85c0-0.018,0.006-0.032,0.019-0.045
		c0.012-0.013,0.026-0.02,0.045-0.02h0.561c0.018,0,0.031,0.006,0.043,0.018s0.018,0.026,0.018,0.043s-0.006,0.031-0.018,0.042
		s-0.025,0.017-0.043,0.017H9.883v0.31h0.446c0.017,0,0.031,0.006,0.043,0.018c0.011,0.012,0.017,0.025,0.017,0.043
		c0,0.017-0.006,0.03-0.017,0.042c-0.012,0.011-0.026,0.017-0.043,0.017H9.883v0.311h0.496c0.018,0,0.031,0.006,0.043,0.018
		s0.018,0.026,0.018,0.043s-0.006,0.03-0.018,0.042c-0.012,0.011-0.025,0.017-0.043,0.017H9.818
		C9.8,11.444,9.785,11.438,9.773,11.426z"/>
	<path fill="#FFFFFF" d="M11.763,11.434c-0.012-0.013-0.018-0.027-0.018-0.045c0-0.008,0.002-0.018,0.007-0.028l0.356-0.843
		c0.008-0.017,0.019-0.03,0.032-0.041s0.029-0.017,0.05-0.017h0.014c0.02,0,0.036,0.006,0.05,0.017s0.023,0.024,0.031,0.041
		l0.357,0.843c0.004,0.011,0.007,0.021,0.007,0.028c0,0.018-0.006,0.032-0.018,0.045c-0.012,0.012-0.027,0.018-0.046,0.018
		c-0.013,0-0.024-0.003-0.035-0.011c-0.011-0.007-0.02-0.017-0.024-0.028l-0.092-0.219h-0.476l-0.091,0.219
		c-0.006,0.012-0.014,0.021-0.024,0.028c-0.011,0.008-0.022,0.011-0.036,0.011C11.789,11.451,11.774,11.445,11.763,11.434z
		 M12.008,11.077h0.378l-0.188-0.455L12.008,11.077z"/>
	<path fill="#FFFFFF" d="M13.272,11.434c-0.013-0.013-0.019-0.027-0.019-0.045v-0.857c0-0.018,0.006-0.032,0.019-0.045
		c0.012-0.013,0.026-0.02,0.045-0.02h0.318c0.089,0,0.161,0.016,0.218,0.045c0.056,0.03,0.096,0.068,0.12,0.115
		s0.036,0.097,0.036,0.151c0,0.054-0.012,0.104-0.036,0.15c-0.024,0.047-0.064,0.085-0.12,0.115
		c-0.057,0.03-0.129,0.045-0.218,0.045h-0.254v0.3c0,0.018-0.007,0.032-0.02,0.045c-0.013,0.012-0.027,0.018-0.045,0.018
		C13.299,11.451,13.284,11.445,13.272,11.434z M13.624,10.969c0.095,0,0.162-0.019,0.2-0.055c0.039-0.037,0.059-0.082,0.059-0.136
		c0-0.055-0.02-0.1-0.059-0.136c-0.038-0.037-0.105-0.055-0.2-0.055h-0.242v0.381H13.624z"/>
	<path fill="#FFFFFF" d="M14.612,11.434c-0.013-0.013-0.019-0.027-0.019-0.045v-0.857c0-0.018,0.006-0.032,0.019-0.045
		c0.012-0.013,0.026-0.02,0.045-0.02h0.318c0.089,0,0.161,0.016,0.218,0.045c0.056,0.03,0.096,0.068,0.12,0.115
		s0.036,0.097,0.036,0.151c0,0.054-0.012,0.104-0.036,0.15c-0.024,0.047-0.064,0.085-0.12,0.115
		c-0.057,0.03-0.129,0.045-0.218,0.045h-0.254v0.3c0,0.018-0.007,0.032-0.02,0.045c-0.013,0.012-0.027,0.018-0.045,0.018
		C14.639,11.451,14.624,11.445,14.612,11.434z M14.964,10.969c0.095,0,0.162-0.019,0.2-0.055c0.039-0.037,0.059-0.082,0.059-0.136
		c0-0.055-0.02-0.1-0.059-0.136c-0.038-0.037-0.105-0.055-0.2-0.055h-0.242v0.381H14.964z"/>
</g>
</svg>
