<?xml version="1.0" encoding="utf-8"?>
<!-- Generator: Adobe Illustrator 15.0.0, SVG Export Plug-In . SVG Version: 6.00 Build 0)  -->
<!DOCTYPE svg PUBLIC "-//W3C//DTD SVG 1.1//EN" "http://www.w3.org/Graphics/SVG/1.1/DTD/svg11.dtd">
<svg version="1.1" id="Logo" xmlns="http://www.w3.org/2000/svg" xmlns:xlink="http://www.w3.org/1999/xlink" x="0px" y="0px" preserveAspectRatio="xMaxYMid meet"
	 width="100%" height="100%" viewBox="0 4 16 6" xml:space="preserve">
<g>
	<g>
		<g>
			<path fill="#555555" d="M10.701,6.653c0-0.158,0.285-0.165,0.285,0v2.154c0,0.188-0.259,0.207-0.338,0.075L9.273,7.039
				L9.275,7.52v1.324c0,0.185-0.285,0.188-0.285,0V6.694c0-0.188,0.21-0.218,0.305-0.079l1.408,1.884l-0.002-0.518V6.653z"/>
			<path fill="#555555" d="M13.312,6.66c0-0.184,0.281-0.184,0.281-0.003v1.234c0,0.72-0.56,1.084-1.106,1.084
				c-0.549,0-1.107-0.364-1.107-1.084V6.657c0-0.165,0.281-0.165,0.281,0.003v1.231c0,1.084,1.651,1.084,1.651,0V6.66L13.312,6.66z"
				/>
			<path fill="#555555" d="M15.854,6.559c0.185,0,0.185,0.259,0,0.259h-0.837c0,0.675,0.004,1.362,0.004,2.038
				c0,0.094-0.078,0.139-0.143,0.139s-0.135-0.045-0.135-0.139V6.818H13.91c-0.176,0-0.176-0.259,0-0.259H15.854z"/>
		</g>
		<g>
			<path fill="#BED136" d="M1.971,6.896h0.005C1.823,6.854,1.633,6.854,1.476,6.9C1.105,6.998,0.887,7.309,0.859,7.684h1.747
				C2.574,7.29,2.333,6.989,1.971,6.896z"/>
			<path fill="#BED136" d="M6.777,6.896h0.004C6.629,6.854,6.439,6.854,6.281,6.9C5.911,6.998,5.693,7.309,5.665,7.684h1.747
				C7.38,7.29,7.139,6.989,6.777,6.896z"/>
			<path fill="#BED136" d="M7.455,6.026L7.896,5.57c0,0,0.128-0.13,0.034-0.251C7.856,5.223,7.734,5.247,7.66,5.28
				c-0.075,0.034-0.494,0.2-0.494,0.2C7.829,4.96,8.029,4.623,8.09,4.414C8.129,4.28,7.999,4.259,7.936,4.322
				c-0.114,0.115-1.032,1.294-3.8,1.294s-3.686-1.179-3.8-1.294C0.273,4.259,0.143,4.28,0.182,4.414
				C0.242,4.623,0.442,4.96,1.105,5.48c0,0-0.419-0.166-0.494-0.2C0.537,5.247,0.415,5.223,0.341,5.318
				C0.246,5.44,0.375,5.57,0.375,5.57l0.442,0.456c-0.238,0.143-0.809,0.958-0.809,2.04c0,1.327,0.979,1.456,1.571,1.374
				c0.558-0.076,1.43-0.256,2.383,0.367l0.01-0.923l-1.02-2.002C2.848,6.674,3.18,6.561,3.27,6.766l0.868,1.791L5.052,6.76
				C5.138,6.567,5.445,6.668,5.353,6.88L4.314,8.884l0.009,0.914c0.948-0.613,1.814-0.435,2.37-0.358
				c0.591,0.082,1.571-0.047,1.571-1.374C8.264,6.984,7.692,6.168,7.455,6.026z M2.704,7.967H0.873
				c0.06,0.38,0.385,0.695,0.848,0.695c0.213,0,0.436-0.057,0.616-0.195C2.5,8.319,2.741,8.509,2.56,8.694
				C2.347,8.894,2.036,8.977,1.735,8.973c-0.361,0-0.723-0.14-0.94-0.412c-0.5-0.659-0.283-1.725,0.579-1.966
				c0.218-0.065,0.468-0.06,0.695,0h0.004c0.524,0.144,0.848,0.57,0.857,1.163V7.753C2.94,7.855,2.894,7.967,2.704,7.967z
				 M7.509,7.967H5.679c0.061,0.38,0.385,0.695,0.848,0.695c0.213,0,0.436-0.057,0.617-0.195c0.162-0.148,0.403,0.042,0.222,0.227
				C7.152,8.894,6.842,8.977,6.541,8.973c-0.362,0-0.723-0.14-0.941-0.412C5.1,7.902,5.317,6.836,6.179,6.595
				c0.218-0.065,0.468-0.06,0.695,0h0.004c0.524,0.144,0.848,0.57,0.857,1.163V7.753C7.746,7.855,7.699,7.967,7.509,7.967z"/>
		</g>
	</g>
</g>
</svg>
